<svg width="24" height="24" viewBox="0 0 24 24" fill="none" xmlns="http://www.w3.org/2000/svg">
<path d="M18 15.75V17.25H19.311C18.4793 18.4123 17.3818 19.359 16.1101 20.0113C14.8384 20.6636 13.4292 21.0026 12 21C7.03725 21 3 16.9627 3 12H1.5C1.5 17.79 6.21 22.5 12 22.5C15.2662 22.5 18.2805 20.9993 20.25 18.4913V19.5H21.75V15.75H18Z" fill="#888EA8"/>
<path d="M16.8787 8.72772L12.387 6.10272C12.2723 6.03566 12.1419 6.00025 12.0091 6.00012C11.8763 5.99999 11.7458 6.03514 11.631 6.10197L7.12275 8.72697C7.00938 8.79295 6.91529 8.88751 6.84989 9.00122C6.78448 9.11492 6.75004 9.24379 6.75 9.37497V14.625C6.75004 14.7561 6.78448 14.885 6.84989 14.9987C6.91529 15.1124 7.00938 15.207 7.12275 15.273L11.631 17.898C11.7425 17.9646 11.87 17.9999 12 18C12.1305 18 12.27 17.9662 12.387 17.8972L16.8787 15.2722C16.9917 15.2061 17.0854 15.1116 17.1506 14.998C17.2157 14.8845 17.25 14.7559 17.25 14.625V9.37497C17.25 9.24407 17.2157 9.11545 17.1506 9.0019C17.0854 8.88835 16.9917 8.79383 16.8787 8.72772ZM12.0082 7.61772L15.0135 9.37497L12.0082 11.1315L8.991 9.37497L12.0082 7.61772ZM8.25 10.68L11.25 12.4275V15.9412L8.25 14.1937V10.68ZM12.75 15.9487V12.4365L15.75 10.683V14.1952L12.75 15.9487Z" fill="#888EA8"/>
<path d="M12 1.50001C10.4107 1.49782 8.84182 1.85768 7.41236 2.55227C5.98289 3.24686 4.73043 4.25793 3.75 5.50876V4.50001H2.25V8.25001H6V6.75001H4.689C5.52073 5.5877 6.61816 4.64097 7.88988 3.98867C9.16159 3.33638 10.5708 2.99741 12 3.00001C16.9628 3.00001 21 7.03726 21 12H22.5C22.5 6.21001 17.79 1.50001 12 1.50001Z" fill="#888EA8"/>
</svg>
