<svg width="20" height="20" viewBox="0 0 20 20" fill="none" xmlns="http://www.w3.org/2000/svg">
<path d="M16.25 1.25H3.75C3.41848 1.25 3.10054 1.3817 2.86612 1.61612C2.6317 1.85054 2.5 2.16848 2.5 2.5V5C2.5 5.33152 2.6317 5.64946 2.86612 5.88388C3.10054 6.1183 3.41848 6.25 3.75 6.25H9.375V10.1062L7.75625 8.49375L6.875 9.375L10 12.5L13.125 9.375L12.2437 8.49375L10.625 10.1062V6.25H16.25C16.5815 6.25 16.8995 6.1183 17.1339 5.88388C17.3683 5.64946 17.5 5.33152 17.5 5V2.5C17.5 2.16848 17.3683 1.85054 17.1339 1.61612C16.8995 1.3817 16.5815 1.25 16.25 1.25ZM3.75 2.5H6.25V5H3.75V2.5ZM16.25 5H7.5V2.5H16.25V5ZM16.25 13.75H3.75C3.41848 13.75 3.10054 13.8817 2.86612 14.1161C2.6317 14.3505 2.5 14.6685 2.5 15V17.5C2.5 17.8315 2.6317 18.1495 2.86612 18.3839C3.10054 18.6183 3.41848 18.75 3.75 18.75H16.25C16.5815 18.75 16.8995 18.6183 17.1339 18.3839C17.3683 18.1495 17.5 17.8315 17.5 17.5V15C17.5 14.6685 17.3683 14.3505 17.1339 14.1161C16.8995 13.8817 16.5815 13.75 16.25 13.75ZM3.75 15H12.5V17.5H3.75V15ZM16.25 17.5H13.75V15H16.25V17.5Z" fill="#888EA8"/>
</svg>
