<svg width="28" height="28" viewBox="0 0 28 28" fill="none" xmlns="http://www.w3.org/2000/svg">
<path d="M16.1621 4.49572C16.2684 4.3857 16.3272 4.23835 16.3258 4.0854C16.3245 3.93245 16.2631 3.78614 16.155 3.67799C16.0468 3.56983 15.9005 3.50849 15.7476 3.50716C15.5946 3.50583 15.4473 3.56462 15.3373 3.67088L13.9997 5.00847L12.6621 3.67088C12.6083 3.61517 12.5439 3.57073 12.4728 3.54016C12.4016 3.50958 12.325 3.49349 12.2476 3.49282C12.1701 3.49215 12.0933 3.50691 12.0216 3.53624C11.9499 3.56557 11.8848 3.60888 11.83 3.66365C11.7753 3.71842 11.7319 3.78355 11.7026 3.85524C11.6733 3.92693 11.6585 4.00375 11.6592 4.0812C11.6599 4.15865 11.676 4.2352 11.7065 4.30637C11.7371 4.37754 11.7816 4.44191 11.8373 4.49572L13.1748 5.8333L11.8373 7.17088C11.731 7.2809 11.6722 7.42825 11.6735 7.5812C11.6749 7.73415 11.7362 7.88046 11.8444 7.98861C11.9525 8.09676 12.0988 8.15811 12.2518 8.15944C12.4047 8.16077 12.5521 8.10197 12.6621 7.99572L13.9997 6.65813L15.3373 7.99572C15.4467 8.1051 15.5951 8.16651 15.7499 8.16646C15.9046 8.1664 16.053 8.10488 16.1624 7.99542C16.2718 7.88597 16.3332 7.73754 16.3331 7.5828C16.3331 7.42806 16.2716 7.27968 16.1621 7.1703L14.8245 5.8333L16.1621 4.49572Z" fill="#888EA8"/>
<path fillRule="evenodd" clipRule="evenodd" d="M3.89877 15.4286L5.83311 16.0732V21C5.83311 21.1213 5.87092 21.2396 5.94129 21.3384C6.01165 21.4372 6.11106 21.5116 6.22569 21.5512L13.8044 24.1745C13.9241 24.2175 14.0548 24.2198 14.1759 24.1809L14.1841 24.1786L14.1929 24.1757L21.7739 21.5512C21.8885 21.5116 21.9879 21.4372 22.0583 21.3384C22.1286 21.2396 22.1664 21.1213 22.1664 21V16.0732L24.1008 15.4286C24.19 15.3989 24.2707 15.3481 24.3361 15.2805C24.4014 15.2129 24.4495 15.1305 24.4761 15.0403C24.5028 14.9501 24.5072 14.8548 24.4891 14.7626C24.471 14.6703 24.4308 14.5838 24.372 14.5104L22.0387 11.5937C21.9695 11.5076 21.8772 11.4428 21.7727 11.4071L14.1905 8.78207C14.067 8.73931 13.9326 8.73931 13.809 8.78207L6.22686 11.4071C6.12228 11.4428 6.03003 11.5076 5.96086 11.5937L3.62752 14.5104C3.56875 14.5838 3.52858 14.6703 3.51045 14.7626C3.49233 14.8548 3.49677 14.9501 3.52341 15.0403C3.55005 15.1305 3.5981 15.2129 3.66346 15.2805C3.72882 15.3481 3.80955 15.3989 3.89877 15.4286ZM12.4359 17.8342L13.4164 16.4342V22.806L6.99977 20.5847V16.4617L11.7738 18.053C11.893 18.0926 12.0219 18.0927 12.1412 18.0532C12.2605 18.0136 12.3639 17.9372 12.4359 17.8342ZM8.19969 11.9583L13.9998 13.9662L19.7999 11.9583L13.9998 9.95049L8.19969 11.9583ZM15.5637 17.8348L14.5831 16.4337V22.806L20.9998 20.5847V16.4617L16.2258 18.053C16.1065 18.0926 15.9776 18.0927 15.8583 18.0532C15.739 18.0136 15.6357 17.9367 15.5637 17.8337M6.61477 12.6443L5.06136 14.5862L8.27611 15.6578L11.7294 16.8087L13.0787 14.882L12.9999 14.8546L6.61477 12.6443ZM22.9382 14.5862L21.3848 12.6437L14.9209 14.882L16.2701 16.8087L22.9382 14.5862Z" fill="#888EA8"/>
</svg>
