<svg width="22" height="22" viewBox="0 0 22 22" fill="none" xmlns="http://www.w3.org/2000/svg">
<path d="M7.79167 6.41663H13.2917M10.5417 12.8333V6.87496M9.23221 19.25H3.66667C3.42355 19.25 3.19039 19.1534 3.01849 18.9815C2.84658 18.8096 2.75 18.5764 2.75 18.3333V3.20829C2.75 2.96518 2.84658 2.73202 3.01849 2.56011C3.19039 2.3882 3.42355 2.29163 3.66667 2.29163H18.3333C18.5764 2.29163 18.8096 2.3882 18.9815 2.56011C19.1534 2.73202 19.25 2.96518 19.25 3.20829V7.66192M12.375 17.4166L17.1875 10.7708L19.25 12.375L14.2083 19.25H12.375V17.4166Z" stroke="#888EA8" strokeWidth="2" strokeLinecap="round" strokeLinejoin="round"/>
</svg>
