<svg width="22" height="22" viewBox="0 0 22 22" fill="none" xmlns="http://www.w3.org/2000/svg">
<path d="M19.25 10.1841V4.58329C19.25 4.09706 19.0568 3.63075 18.713 3.28693C18.3692 2.94311 17.9029 2.74996 17.4167 2.74996H13.585C13.2 1.68663 12.1917 0.916626 11 0.916626C9.80833 0.916626 8.8 1.68663 8.415 2.74996H4.58333C3.575 2.74996 2.75 3.57496 2.75 4.58329V17.4166C2.75 17.9029 2.94315 18.3692 3.28697 18.713C3.63079 19.0568 4.0971 19.25 4.58333 19.25H10.1842C11.3392 20.3866 12.9158 21.0833 14.6667 21.0833C18.2142 21.0833 21.0833 18.2141 21.0833 14.6666C21.0833 12.9158 20.3867 11.3391 19.25 10.1841ZM11 2.74996C11.5042 2.74996 11.9167 3.16246 11.9167 3.66663C11.9167 4.17079 11.5042 4.58329 11 4.58329C10.4958 4.58329 10.0833 4.17079 10.0833 3.66663C10.0833 3.16246 10.4958 2.74996 11 2.74996ZM4.58333 17.4166V4.58329H6.41667V6.41663H15.5833V4.58329H17.4167V8.87329C16.5825 8.47913 15.6567 8.24996 14.6667 8.24996H6.41667V10.0833H10.175C9.625 10.6058 9.20333 11.2291 8.87333 11.9166H6.41667V13.75H8.32333C8.2775 14.0525 8.25 14.355 8.25 14.6666C8.25 15.6566 8.47917 16.5825 8.87333 17.4166H4.58333ZM14.6667 19.25C12.1367 19.25 10.0833 17.1966 10.0833 14.6666C10.0833 12.1366 12.1367 10.0833 14.6667 10.0833C17.1967 10.0833 19.25 12.1366 19.25 14.6666C19.25 17.1966 17.1967 19.25 14.6667 19.25ZM15.125 14.8958L17.7467 16.445L17.0592 17.5633L13.75 15.5833V11H15.125V14.8958Z" fill="#888EA8"/>
</svg>
