<svg width="20" height="20" viewBox="0 0 20 20" fill="none" xmlns="http://www.w3.org/2000/svg">
<g clipPath="url(#clip0_40_1194)">
<path d="M15 0H6.25V7.5H7.125L7.375 8.375L7.5 8.5V1.25H13.75V6.25H18.75V17.5H11.25L11.625 18.125L11 18.75H20V5L15 0ZM15 5V1.25L18.75 5H15ZM6.875 14.375C6.875 14.7065 6.7433 15.0245 6.50888 15.2589C6.27446 15.4933 5.95652 15.625 5.625 15.625C5.29348 15.625 4.97554 15.4933 4.74112 15.2589C4.5067 15.0245 4.375 14.7065 4.375 14.375C4.375 14.0435 4.5067 13.7255 4.74112 13.4911C4.97554 13.2567 5.29348 13.125 5.625 13.125C5.95652 13.125 6.27446 13.2567 6.50888 13.4911C6.7433 13.7255 6.875 14.0435 6.875 14.375Z" fill="#888EA8"/>
<path d="M9.875 15.5L11.25 15V13.75L9.875 13.25C9.75 12.875 9.625 12.5 9.375 12.125L10 10.875L9.125 10L7.875 10.625C7.5 10.375 7.125 10.25 6.75 10.125L6.25 8.75H5L4.5 10.125C4.125 10.25 3.75 10.375 3.375 10.625L2.125 10L1.25 10.875L1.875 12.25C1.625 12.625 1.5 13 1.375 13.375L0 13.75V15L1.375 15.5C1.5 15.875 1.625 16.25 1.875 16.625L1.25 17.875L2.125 18.75L3.5 18.125C3.875 18.375 4.25 18.5 4.625 18.625L5 20H6.25L6.75 18.625C7.125 18.5 7.5 18.375 7.875 18.125L9.125 18.75L10 17.875L9.375 16.5C9.625 16.25 9.75 15.875 9.875 15.5ZM5.625 16.875C4.25 16.875 3.125 15.75 3.125 14.375C3.125 13 4.25 11.875 5.625 11.875C7 11.875 8.125 13 8.125 14.375C8.125 15.75 7 16.875 5.625 16.875Z" fill="#888EA8"/>
</g>
<defs>
<clipPath id="clip0_40_1194">
<rect width="20" height="20" fill="white"/>
</clipPath>
</defs>
</svg>
